<?xml version="1.0" encoding="utf-8"?>
<!-- Generator: Adobe Illustrator 24.0.0, SVG Export Plug-In . SVG Version: 6.00 Build 0)  -->
<svg version="1.1" id="Layer_1" xmlns="http://www.w3.org/2000/svg" xmlns:xlink="http://www.w3.org/1999/xlink" x="0px" y="0px"
	 viewBox="0 0 256 256" enable-background="new 0 0 256 256" xml:space="preserve">
<g>
	<g>
		<g>
			<path fill="#87796F" d="M229.455,151.445c-5.548,0-10.045,4.497-10.045,10.045v57.92H36.59v-57.92
				c0-5.548-4.498-10.045-10.045-10.045c-5.547,0-10.045,4.497-10.045,10.045v67.965c0,5.548,4.498,10.045,10.045,10.045h202.91
				c5.547,0,10.045-4.497,10.045-10.045V161.49C239.5,155.942,235.002,151.445,229.455,151.445z"/>
		</g>
	</g>
	<g>
		<g>
			<path fill="#3A312A" d="M229.455,149.945c-6.366,0-11.545,5.179-11.545,11.545v56.419H38.09V161.49
				c0-6.366-5.179-11.545-11.545-11.545S15,155.124,15,161.49v67.965c0,6.366,5.179,11.545,11.545,11.545h113.389
				c0.828,0,1.5-0.671,1.5-1.5s-0.672-1.5-1.5-1.5H26.545c-4.712,0-8.545-3.833-8.545-8.545V161.49c0-4.712,3.833-8.545,8.545-8.545
				s8.545,3.833,8.545,8.545v57.919c0,0.829,0.672,1.5,1.5,1.5h182.82c0.828,0,1.5-0.671,1.5-1.5V161.49
				c0-4.712,3.833-8.545,8.545-8.545c4.712,0,8.545,3.833,8.545,8.545v67.965c0,4.712-3.833,8.545-8.545,8.545h-75.888
				c-0.828,0-1.5,0.671-1.5,1.5s0.672,1.5,1.5,1.5h75.888c6.366,0,11.545-5.179,11.545-11.545V161.49
				C241,155.124,235.821,149.945,229.455,149.945z"/>
		</g>
	</g>
	<g>
		<g>
			<path fill="#ED6E7A" d="M203.372,105.868l-70.337-86.956c-2.592-3.204-7.478-3.204-10.069,0l-70.337,86.956
				c-3.425,4.234-0.411,10.548,5.035,10.548H84.78v81.108c0,3.576,2.899,6.476,6.476,6.476h73.489c3.576,0,6.476-2.899,6.476-6.476
				v-81.108h27.117C203.783,116.416,206.797,110.103,203.372,105.868z"/>
		</g>
	</g>
	<g>
		<g>
			<path fill="#3A312A" d="M204.538,104.925l-70.337-86.956c-1.521-1.881-3.781-2.96-6.201-2.96c-2.42,0-4.68,1.079-6.201,2.96
				l-70.337,86.956c-1.951,2.413-2.333,5.651-0.997,8.451c1.337,2.8,4.095,4.54,7.198,4.54H83.28v34.02c0,0.829,0.672,1.5,1.5,1.5
				c0.828,0,1.5-0.671,1.5-1.5v-35.52c0-0.829-0.672-1.5-1.5-1.5H57.663c-1.965,0-3.644-1.059-4.49-2.832
				c-0.847-1.773-0.614-3.744,0.621-5.272l70.337-86.955c0.949-1.174,2.359-1.847,3.869-1.847c1.51,0,2.92,0.673,3.869,1.847
				l70.337,86.955c1.235,1.528,1.468,3.499,0.621,5.272c-0.847,1.774-2.525,2.832-4.49,2.832H171.22c-0.828,0-1.5,0.671-1.5,1.5
				v81.108c0,2.744-2.232,4.976-4.976,4.976H91.256c-2.743,0-4.976-2.232-4.976-4.976v-31.46c0-0.829-0.672-1.5-1.5-1.5
				c-0.828,0-1.5,0.671-1.5,1.5v31.46c0,4.398,3.578,7.976,7.976,7.976h73.488c4.398,0,7.976-3.578,7.976-7.976v-79.608h25.617
				c3.104,0,5.861-1.74,7.198-4.54C206.871,110.576,206.489,107.337,204.538,104.925z"/>
		</g>
	</g>
	<g>
		<g>
			<path fill="#D4D853" d="M47.437,26.177c-0.974,11.564-13.031,13.389-13.031,13.389c10.352,0.487,12.932,14.059,12.932,14.059
				c0.221-9.677,13.328-14.202,13.328-14.202C50.847,38.836,47.437,26.177,47.437,26.177z"/>
		</g>
	</g>
	<g>
		<g>
			<path fill="#3A312A" d="M60.756,37.926c-8.61-0.515-11.84-12.025-11.871-12.141c-0.192-0.702-0.848-1.167-1.584-1.101
				c-0.725,0.066-1.298,0.642-1.359,1.367c-0.859,10.215-11.319,11.963-11.761,12.033c-0.763,0.115-1.313,0.79-1.273,1.561
				c0.04,0.77,0.657,1.384,1.428,1.421c9.034,0.425,11.506,12.718,11.529,12.842c0.138,0.711,0.76,1.217,1.473,1.217
				c0.042,0,0.084-0.001,0.126-0.005c0.765-0.064,1.357-0.693,1.375-1.459c0.193-8.509,12.198-12.777,12.319-12.819
				c0.675-0.235,1.092-0.914,0.994-1.623C62.054,38.51,61.47,37.969,60.756,37.926z M47.183,48.273
				c-1.357-3.13-3.711-6.908-7.592-8.878c2.933-1.405,6.413-3.914,8.206-8.274c1.552,3.071,4.202,6.881,8.34,8.724
				C53.127,41.485,49.21,44.251,47.183,48.273z"/>
		</g>
	</g>
	<g>
		<g>
			<path fill="#D4D853" d="M25.727,43.157c-0.689,8.179-9.217,9.471-9.217,9.471c7.322,0.345,9.147,9.944,9.147,9.944
				c0.156-6.844,9.427-10.046,9.427-10.046C28.139,52.111,25.727,43.157,25.727,43.157z"/>
		</g>
	</g>
	<g>
		<g>
			<path fill="#3A312A" d="M35.174,51.029c-5.77-0.345-7.977-8.186-7.999-8.265c-0.189-0.702-0.861-1.162-1.581-1.101
				c-0.726,0.065-1.3,0.642-1.361,1.368c-0.579,6.871-7.651,8.067-7.947,8.114c-0.763,0.115-1.314,0.79-1.274,1.561
				c0.04,0.77,0.657,1.384,1.428,1.421c6.039,0.284,7.728,8.644,7.744,8.726c0.136,0.712,0.759,1.22,1.473,1.22
				c0.041,0,0.083-0.002,0.125-0.005c0.765-0.063,1.358-0.694,1.376-1.461c0.13-5.709,8.335-8.633,8.416-8.662
				c0.677-0.234,1.094-0.913,0.997-1.622C36.473,51.614,35.888,51.072,35.174,51.029z M25.584,57.826
				c-0.924-1.886-2.341-3.948-4.45-5.281c1.857-1.041,3.7-2.63,4.874-4.917c1.058,1.874,2.656,3.956,4.944,5.225
				C29.102,53.953,26.961,55.593,25.584,57.826z"/>
		</g>
	</g>
	<g>
		<g>
			<path fill="#D4D853" d="M25.727,16.5c-0.689,8.18-9.217,9.471-9.217,9.471c7.322,0.344,9.147,9.944,9.147,9.944
				c0.156-6.845,9.427-10.045,9.427-10.045C28.139,25.454,25.727,16.5,25.727,16.5z"/>
		</g>
	</g>
	<g>
		<g>
			<path fill="#3A312A" d="M35.174,24.372c-5.77-0.345-7.977-8.186-7.999-8.265c-0.189-0.702-0.861-1.16-1.581-1.101
				c-0.726,0.065-1.3,0.642-1.361,1.368c-0.579,6.871-7.651,8.067-7.947,8.114c-0.763,0.115-1.314,0.79-1.274,1.561
				c0.04,0.77,0.657,1.384,1.428,1.421c6.039,0.284,7.728,8.644,7.744,8.726c0.136,0.712,0.759,1.22,1.473,1.22
				c0.041,0,0.083-0.001,0.125-0.005c0.765-0.063,1.358-0.694,1.376-1.461c0.13-5.709,8.336-8.634,8.416-8.662
				c0.677-0.234,1.094-0.913,0.997-1.622C36.473,24.956,35.888,24.415,35.174,24.372z M25.584,31.168
				c-0.924-1.886-2.341-3.948-4.45-5.281c1.857-1.041,3.7-2.63,4.874-4.917c1.058,1.874,2.656,3.956,4.944,5.225
				C29.102,27.295,26.961,28.935,25.584,31.168z"/>
		</g>
	</g>
	<g>
		<g>
			<path fill="#D34E5C" d="M156.22,114.919c-0.83,0-1.5,0.67-1.5,1.5v81.1c0,2.75-2.23,4.98-4.98,4.98h15
				c2.75,0,4.98-2.23,4.98-4.98v-81.1c0-0.83,0.67-1.5,1.5-1.5H156.22z"/>
		</g>
	</g>
	<g>
		<g>
			<path fill="#D34E5C" d="M202.21,106.81l-70.34-86.95c-0.95-1.18-2.36-1.85-3.87-1.85c-1.51,0-2.92,0.67-3.87,1.85l-3.63,4.49
				l66.71,82.46c1.23,1.53,1.46,3.5,0.62,5.27c-0.85,1.78-2.53,2.84-4.49,2.84h15c1.96,0,3.64-1.06,4.49-2.84
				C203.67,110.31,203.44,108.34,202.21,106.81z"/>
		</g>
	</g>
</g>
</svg>
